<svg xmlns="http://www.w3.org/2000/svg" width="26" height="27" viewBox="0 0 26 27">
    <g fill="#565867" fill-rule="nonzero">
        <path d="M20.783 12.24c.366-.728.56-1.529.56-2.353 0-2.935-2.437-5.324-5.433-5.324a5.478 5.478 0 0 0-4.461 2.29c-.065-.002-.13-.008-.195-.008-2.974 0-5.518 1.906-6.33 4.633a3.927 3.927 0 0 0-.655-.07C1.915 11.408 0 13.285 0 15.592c0 2.306 1.915 4.183 4.269 4.183.428 0 .776-.341.776-.76 0-.42-.348-.761-.776-.761-1.498 0-2.717-1.195-2.717-2.662 0-1.468 1.22-2.662 2.717-2.662.107 0 .28.025.463.061v.7c0 .419.347.76.776.76.428 0 .776-.341.776-.76v-1.225c.416-2.378 2.497-4.1 4.97-4.1 2.472 0 4.553 1.722 4.97 4.1v1.224c0 .42.347.76.776.76.429 0 .776-.34.776-.76v-.699c.182-.036.355-.061.463-.061 1.497 0 2.716 1.194 2.716 2.662 0 1.467-1.219 2.662-2.716 2.662a.769.769 0 0 0-.776.76c0 .42.347.76.776.76 2.353 0 4.268-1.876 4.268-4.182 0-1.372-.68-2.589-1.724-3.351zm-3.2-.762c-.624-2.095-2.272-3.702-4.35-4.335a3.925 3.925 0 0 1 2.677-1.058c2.14 0 3.88 1.705 3.88 3.802 0 .59-.139 1.16-.401 1.68a4.33 4.33 0 0 0-1.15-.159c-.197 0-.432.03-.656.07zM15.91 3.042c.428 0 .776-.34.776-.76V.76c0-.42-.348-.761-.776-.761a.768.768 0 0 0-.776.76v1.522c0 .42.347.76.776.76zM25.223 9.127h-1.552a.768.768 0 0 0-.776.76c0 .42.347.76.776.76h1.552c.429 0 .777-.34.777-.76s-.348-.76-.777-.76zM21.398 5.27a.781.781 0 0 0 .55-.223l1.097-1.076a.75.75 0 0 0 0-1.075.787.787 0 0 0-1.098 0L20.85 3.97a.75.75 0 0 0 0 1.076.78.78 0 0 0 .548.223zM9.873 5.047c.152.148.35.223.55.223a.781.781 0 0 0 .548-.223.75.75 0 0 0 0-1.076L9.873 2.896a.787.787 0 0 0-1.097 0 .75.75 0 0 0 0 1.075l1.097 1.076z"/>
        <path d="M11.83 15.995a.778.778 0 0 0-.941.553L8.56 25.675a.76.76 0 0 0 .565.922.773.773 0 0 0 .941-.553l2.328-9.127a.759.759 0 0 0-.564-.922zM14.934 18.276a.779.779 0 0 0-.941.554l-1.164 4.563a.76.76 0 0 0 .564.923.773.773 0 0 0 .941-.553l1.165-4.564a.759.759 0 0 0-.565-.923zM7.561 18.276a.779.779 0 0 0-.941.554l-1.164 4.563a.76.76 0 0 0 .564.923.773.773 0 0 0 .941-.553l1.165-4.564a.759.759 0 0 0-.565-.923z"/>
    </g>
</svg>
