<svg xmlns="http://www.w3.org/2000/svg" width="22" height="22" viewBox="0 0 22 22">
    <path fill="#565867" fill-rule="nonzero" d="M11 18.966c-.42 0-.759.34-.759.758v1.517a.759.759 0 0 0 1.518 0v-1.517a.759.759 0 0 0-.759-.758zM7.586 16.69c-.419 0-.758.34-.758.758v1.518a.759.759 0 0 0 1.517 0v-1.518a.759.759 0 0 0-.759-.758zm6.828 0c-.42 0-.759.34-.759.758v1.518a.759.759 0 0 0 1.517 0v-1.518a.759.759 0 0 0-.758-.758zm3.414-12.138c-.193 0-.422.03-.641.07A6.418 6.418 0 0 0 11 0a6.418 6.418 0 0 0-6.187 4.622 3.764 3.764 0 0 0-.64-.07A4.177 4.177 0 0 0 0 8.724c0 2.3 1.872 4.173 4.172 4.173h2.656v1.517a.759.759 0 0 0 1.517 0v-1.517h5.31v1.517a.759.759 0 0 0 1.517 0v-1.517h2.656c2.3 0 4.172-1.872 4.172-4.173 0-2.3-1.872-4.172-4.172-4.172zm0 6.827H4.172a2.659 2.659 0 0 1-2.655-2.655A2.659 2.659 0 0 1 4.172 6.07c.105 0 .275.026.453.061v.698a.759.759 0 0 0 1.517 0V5.607A4.906 4.906 0 0 1 11 1.517a4.907 4.907 0 0 1 4.858 4.09v1.22a.759.759 0 0 0 1.517 0v-.696c.178-.036.349-.062.453-.062a2.659 2.659 0 0 1 2.655 2.655 2.659 2.659 0 0 1-2.655 2.655zM11 14.414c-.42 0-.759.34-.759.758v1.518a.759.759 0 0 0 1.518 0v-1.518a.759.759 0 0 0-.759-.758z"/>
</svg>
