<svg xmlns="http://www.w3.org/2000/svg" width="26" height="24" viewBox="0 0 26 24">
    <g fill="#565867" fill-rule="nonzero">
        <path d="M15.91 3a.764.764 0 0 0 .777-.75V.75A.764.764 0 0 0 15.91 0a.763.763 0 0 0-.776.75v1.5c0 .414.348.75.776.75zM25.224 9h-1.552a.763.763 0 0 0-.776.75c0 .414.347.75.776.75h1.552A.764.764 0 0 0 26 9.75a.764.764 0 0 0-.776-.75zM21.399 5.196a.787.787 0 0 0 .548-.22l1.098-1.06a.732.732 0 0 0 0-1.06.795.795 0 0 0-1.098 0l-1.097 1.06a.732.732 0 0 0 0 1.06c.151.147.35.22.549.22zM9.873 4.977c.152.146.35.22.55.22a.787.787 0 0 0 .548-.22.732.732 0 0 0 0-1.06L9.873 2.855a.795.795 0 0 0-1.097 0 .732.732 0 0 0 0 1.06l1.097 1.06zM18.239 18H4.269c-1.498 0-2.717-1.178-2.717-2.625s1.22-2.625 2.717-2.625c.107 0 .28.025.463.06v.69c0 .414.347.75.776.75a.763.763 0 0 0 .776-.75v-1.209c.417-2.344 2.498-4.041 4.97-4.041 2.781 0 5.045 2.187 5.045 4.875v.375c0 .414.347.75.776.75a.764.764 0 0 0 .776-.75v-.375c0-2.85-1.945-5.267-4.618-6.081A3.955 3.955 0 0 1 15.91 6c2.14 0 3.881 1.682 3.881 3.75 0 .52-.113 1.032-.327 1.503-.02 0-.04-.003-.061-.003a.763.763 0 0 0-.776.75c0 .414.347.75.776.75.474 0 .916.206 1.212.564.223.268.34.592.34.936 0 .827-.696 1.5-1.552 1.5h-8.15a.763.763 0 0 0-.775.75c0 .414.347.75.776.75h8.149c1.712 0 3.104-1.346 3.104-3 0-.679-.241-1.344-.68-1.873a3.082 3.082 0 0 0-.859-.715 5.101 5.101 0 0 0 .375-1.912c0-2.895-2.437-5.25-5.433-5.25-1.786 0-3.453.856-4.462 2.26-.065-.002-.129-.01-.194-.01-2.974 0-5.518 1.88-6.33 4.569a3.98 3.98 0 0 0-.655-.069C1.915 11.25 0 13.1 0 15.375 0 17.649 1.915 19.5 4.269 19.5H18.239c1.497 0 2.716 1.178 2.716 2.625 0 .414.348.75.776.75a.764.764 0 0 0 .776-.75c0-2.274-1.915-4.125-4.268-4.125z"/>
        <path d="M18.238 20.25H4.268a.763.763 0 0 0-.775.75c0 .414.347.75.776.75h13.97c.214 0 .387.168.387.375a.382.382 0 0 1-.388.375.763.763 0 0 0-.776.75c0 .414.348.75.776.75 1.07 0 1.94-.841 1.94-1.875s-.87-1.875-1.94-1.875zM23.672 15a.763.763 0 0 0-.776.75c0 .414.347.75.776.75.214 0 .388.168.388.375a.382.382 0 0 1-.388.375h-1.553a.763.763 0 0 0-.776.75c0 .414.348.75.776.75h1.553c1.07 0 1.94-.841 1.94-1.875S24.742 15 23.672 15z"/>
    </g>
</svg>
